<?xml version="1.0" encoding="UTF-8" standalone="no"?>
<!-- Created with Inkscape (http://www.inkscape.org/) -->

<svg
   width="1200"
   height="1600"
   viewBox="0 0 317.49999 423.33333"
   version="1.1"
   id="svg1"
   xml:space="preserve"
   inkscape:version="1.4 (86a8ad7, 2024-10-11)"
   sodipodi:docname="loader.svg"
   xmlns:inkscape="http://www.inkscape.org/namespaces/inkscape"
   xmlns:sodipodi="http://sodipodi.sourceforge.net/DTD/sodipodi-0.dtd"
   xmlns="http://www.w3.org/2000/svg"
   xmlns:svg="http://www.w3.org/2000/svg"
   xmlns:rdf="http://www.w3.org/1999/02/22-rdf-syntax-ns#"
   xmlns:cc="http://creativecommons.org/ns#"
   xmlns:dc="http://purl.org/dc/elements/1.1/"><defs
     id="defs1"><rect
       x="364.41252"
       y="842.71974"
       width="18.182745"
       height="10.354063"
       id="rect2" /></defs><sodipodi:namedview
     id="base"
     pagecolor="#ffffff"
     bordercolor="#000000"
     borderopacity="0.3"
     inkscape:pageopacity="0.0"
     inkscape:pageshadow="2"
     inkscape:zoom="0.35000001"
     inkscape:cx="275.71428"
     inkscape:cy="929.99998"
     inkscape:document-units="mm"
     inkscape:showpageshadow="0"
     inkscape:pagecheckerboard="0"
     inkscape:deskcolor="#505050"
     inkscape:window-width="1920"
     inkscape:window-height="991"
     inkscape:window-x="-9"
     inkscape:window-y="-9"
     inkscape:window-maximized="1"
     inkscape:current-layer="svg1" /><metadata
     id="metadata1"><rdf:RDF><cc:Work
         rdf:about=""><dc:format>image/svg+xml</dc:format><dc:type
           rdf:resource="http://purl.org/dc/dcmitype/StillImage" /></cc:Work></rdf:RDF></metadata><text
     xml:space="preserve"
     transform="scale(0.26458333)"
     id="text2"
     style="font-weight:bold;font-size:5.33333px;line-height:0;font-family:Sans;-inkscape-font-specification:'Sans Bold';text-align:start;writing-mode:lr-tb;direction:ltr;white-space:pre;shape-inside:url(#rect2);display:inline;fill:#800000;stroke:#000000;stroke-width:0.124" /><path
     d="m 123.7154,215.33362 q -1.02219,0 -1.89043,-0.30173 -0.86209,-0.30173 -1.48402,-0.89903 -0.62194,-0.59731 -0.96677,-1.49018 -0.33868,-0.89288 -0.33868,-2.06285 0,-1.08993 0.32636,-1.97665 0.32637,-0.88671 0.9483,-1.52096 0.5973,-0.60962 1.47786,-0.94214 0.88672,-0.33252 1.93354,-0.33252 0.57883,0 1.04066,0.0677 0.46799,0.0616 0.86209,0.16626 0.41257,0.117 0.74509,0.26479 0.33868,0.14163 0.59114,0.26478 v 2.22295 h -0.27094 q -0.17241,-0.14778 -0.4372,-0.35099 -0.25862,-0.2032 -0.59114,-0.40025 -0.33868,-0.19705 -0.73278,-0.33252 -0.39409,-0.13547 -0.84361,-0.13547 -0.49878,0 -0.9483,0.1601 -0.44951,0.15394 -0.8313,0.51725 -0.3633,0.35099 -0.59114,0.92982 -0.22168,0.57883 -0.22168,1.40397 0,0.86209 0.24015,1.44092 0.24631,0.57883 0.61578,0.91135 0.37562,0.33868 0.83746,0.48646 0.46183,0.14163 0.91134,0.14163 0.43105,0 0.84978,-0.12931 0.42488,-0.12931 0.78203,-0.35099 0.30173,-0.17858 0.56036,-0.38179 0.25862,-0.2032 0.42488,-0.35099 h 0.24631 v 2.19217 q -0.34483,0.15394 -0.65888,0.28941 -0.31404,0.13547 -0.65888,0.234 -0.44951,0.12931 -0.84361,0.19704 -0.3941,0.0677 -1.08377,0.0677 z m 9.04576,-1.9828 v -1.44092 q -0.44952,0.037 -0.97293,0.10469 -0.52341,0.0616 -0.79435,0.14778 -0.33252,0.10468 -0.51109,0.30789 -0.17242,0.19705 -0.17242,0.52341 0,0.21552 0.0369,0.35099 0.037,0.13547 0.18474,0.25863 0.14163,0.12315 0.33867,0.18473 0.19705,0.0554 0.61578,0.0554 0.33252,0 0.6712,-0.13547 0.34483,-0.13547 0.60346,-0.35715 z m 0,1.07145 q -0.17858,0.13547 -0.44336,0.32636 -0.26479,0.19089 -0.49878,0.30173 -0.32636,0.14779 -0.67735,0.21552 -0.351,0.0739 -0.76972,0.0739 -0.98525,0 -1.65029,-0.60962 -0.66503,-0.60962 -0.66503,-1.55792 0,-0.7574 0.33867,-1.23771 0.33868,-0.4803 0.96061,-0.7574 0.61578,-0.2771 1.52713,-0.3941 0.91135,-0.117 1.89043,-0.17242 v -0.0369 q 0,-0.57267 -0.46799,-0.7882 -0.46799,-0.22167 -1.37934,-0.22167 -0.54804,0 -1.16997,0.19704 -0.62194,0.19089 -0.89288,0.29558 h -0.2032 v -1.66876 q 0.35099,-0.0924 1.13918,-0.21552 0.79435,-0.12931 1.58871,-0.12931 1.89043,0 2.72789,0.58498 0.84361,0.57883 0.84361,1.8227 v 4.70453 h -2.19832 z m 9.24896,-4.07028 h -0.19705 q -0.14163,-0.0493 -0.45568,-0.0739 -0.31404,-0.0246 -0.52341,-0.0246 -0.47414,0 -0.83745,0.0616 -0.36331,0.0616 -0.78204,0.20937 v 4.63063 h -2.21679 v -6.91516 h 2.21679 v 1.01603 q 0.73278,-0.6281 1.27466,-0.8313 0.54188,-0.20937 0.99756,-0.20937 0.117,0 0.26478,0.006 0.14779,0.006 0.25863,0.0185 z m 7.98046,4.0087 q 0,0.97293 -0.2771,1.63797 -0.2771,0.66504 -0.77588,1.04066 -0.49878,0.38178 -1.20692,0.54804 -0.70198,0.17242 -1.5887,0.17242 -0.72046,0 -1.42245,-0.0862 -0.69582,-0.0862 -1.20692,-0.20936 v -1.73034 h 0.27094 q 0.40642,0.16011 0.9914,0.28942 0.58499,0.13547 1.04682,0.13547 0.61578,0 0.99756,-0.117 0.38794,-0.11084 0.59115,-0.3202 0.19089,-0.19705 0.2771,-0.50494 0.0862,-0.30789 0.0862,-0.73893 v -0.12931 q -0.40026,0.32636 -0.88672,0.51725 -0.48647,0.19089 -1.08377,0.19089 -1.45323,0 -2.24143,-0.8744 -0.78819,-0.8744 -0.78819,-2.66016 0,-0.85593 0.24015,-1.47786 0.24016,-0.62193 0.67736,-1.08377 0.40641,-0.43104 0.99756,-0.67119 0.5973,-0.24015 1.21923,-0.24015 0.56036,0 1.01603,0.13547 0.46184,0.12931 0.83746,0.3633 l 0.08,-0.30788 h 2.14906 z m -2.21679,-1.38549 v -3.13431 q -0.1909,-0.08 -0.46799,-0.12315 -0.2771,-0.0493 -0.49878,-0.0493 -0.87441,0 -1.31161,0.50493 -0.4372,0.49878 -0.4372,1.39782 0,0.99755 0.36947,1.39165 0.37562,0.3941 1.10839,0.3941 0.33252,0 0.65273,-0.10468 0.3202,-0.10469 0.58499,-0.2771 z m 8.49771,0.37562 v -1.44092 q -0.44952,0.037 -0.97293,0.10469 -0.52341,0.0616 -0.79435,0.14778 -0.33252,0.10468 -0.51109,0.30789 -0.17242,0.19705 -0.17242,0.52341 0,0.21552 0.037,0.35099 0.0369,0.13547 0.18473,0.25863 0.14163,0.12315 0.33868,0.18473 0.19704,0.0554 0.61577,0.0554 0.33252,0 0.6712,-0.13547 0.34483,-0.13547 0.60346,-0.35715 z m 0,1.07145 q -0.17858,0.13547 -0.44336,0.32636 -0.26478,0.19089 -0.49878,0.30173 -0.32636,0.14779 -0.67735,0.21552 -0.351,0.0739 -0.76972,0.0739 -0.98525,0 -1.65028,-0.60962 -0.66504,-0.60962 -0.66504,-1.55792 0,-0.7574 0.33867,-1.23771 0.33868,-0.4803 0.96062,-0.7574 0.61577,-0.2771 1.52712,-0.3941 0.91135,-0.117 1.89043,-0.17242 v -0.0369 q 0,-0.57267 -0.46799,-0.7882 -0.46799,-0.22167 -1.37934,-0.22167 -0.54804,0 -1.16997,0.19704 -0.62193,0.19089 -0.89288,0.29558 h -0.2032 v -1.66876 q 0.35099,-0.0924 1.13918,-0.21552 0.79436,-0.12931 1.58871,-0.12931 1.89043,0 2.72789,0.58498 0.84361,0.57883 0.84361,1.8227 v 4.70453 h -2.19832 z m 11.1825,0.73277 h -2.22911 v -3.42987 q 0,-0.41873 -0.0431,-0.8313 -0.0431,-0.41873 -0.14778,-0.61577 -0.12316,-0.22784 -0.36331,-0.33252 -0.234,-0.10469 -0.65888,-0.10469 -0.30173,0 -0.61578,0.0985 -0.30789,0.0985 -0.6712,0.31404 v 4.90158 h -2.21679 v -6.91516 h 2.21679 v 0.76356 q 0.59115,-0.46183 1.13303,-0.70814 0.54804,-0.24631 1.21308,-0.24631 1.12072,0 1.74881,0.65272 0.63425,0.65272 0.63425,1.95201 z m 8.76249,0 h -2.21679 v -0.72045 q -0.57267,0.46799 -1.07145,0.68967 -0.49878,0.22168 -1.1515,0.22168 -1.26234,0 -2.01975,-0.97293 -0.7574,-0.97293 -0.7574,-2.62321 0,-0.88056 0.25246,-1.55791 0.25863,-0.68351 0.70199,-1.16998 0.41873,-0.46183 1.01603,-0.7143 0.5973,-0.25862 1.19461,-0.25862 0.62193,0 1.01603,0.13547 0.40025,0.12931 0.81898,0.33252 v -2.94342 h 2.21679 z m -2.21679,-1.9089 v -3.39293 q -0.234,-0.0985 -0.49262,-0.14163 -0.25863,-0.0431 -0.47415,-0.0431 -0.8744,0 -1.3116,0.54804 -0.4372,0.54188 -0.4372,1.50865 0,1.01603 0.35099,1.47786 0.35099,0.45568 1.12687,0.45568 0.30173,0 0.64041,-0.11084 0.33867,-0.117 0.5973,-0.30173 z m 11.37955,-1.5456 q 0,1.7057 -0.99756,2.69094 -0.9914,0.97909 -2.78946,0.97909 -1.79807,0 -2.79563,-0.97909 -0.9914,-0.98524 -0.9914,-2.69094 0,-1.71802 0.99756,-2.6971 1.00371,-0.97909 2.78947,-0.97909 1.81038,0 2.79562,0.98525 0.9914,0.98524 0.9914,2.69094 z m -2.72789,1.68107 q 0.21552,-0.26479 0.3202,-0.63425 0.11084,-0.37562 0.11084,-1.03451 0,-0.60961 -0.11084,-1.02218 -0.11084,-0.41257 -0.30788,-0.65888 -0.19705,-0.25247 -0.47415,-0.35716 -0.2771,-0.10468 -0.5973,-0.10468 -0.32021,0 -0.57268,0.0862 -0.24631,0.0862 -0.47414,0.34484 -0.20321,0.24015 -0.32637,0.65888 -0.11699,0.41872 -0.11699,1.05297 0,0.56652 0.10468,0.98525 0.10468,0.41257 0.30789,0.66504 0.19704,0.24015 0.46799,0.35099 0.2771,0.11084 0.62809,0.11084 0.30173,0 0.57267,-0.0985 0.2771,-0.10468 0.46799,-0.34483 z m 6.69965,1.77343 h -2.303 v -2.42 h 2.303 z m 4.55674,0 h -2.303 v -2.42 h 2.303 z m 4.55675,0 h -2.30301 v -2.42 h 2.30301 z"
     id="text1"
     style="font-weight:bold;font-size:12.6111px;line-height:0;font-family:Sans;-inkscape-font-specification:'Sans Bold';stroke:#000000;stroke-width:0.293206"
     aria-label="Cargando..." /></svg>
